<?xml version="1.0" standalone="yes"?>
<svg width="500" height="500">
<path style="fill:#000000; stroke:none;" d="M0 0L0 500L500 500L500 0L0 0z"/>
<path style="fill:#14b0bf; stroke:none;" d="M80 210L82 210C97.6281 186.849 113.083 163.591 128.053 140C143.17 116.178 156.783 93.3244 148.841 64C146.498 55.3478 142.149 47.2579 136.96 40C115.02 9.31601 67.5223 3.67688 38 26.5286C18.1913 41.8614 8.78697 66.3774 11.1698 91C12.9573 109.472 23.5782 123.894 33.3079 139C48.6558 162.829 64.1516 186.511 80 210z"/>
<path style="fill:#6bb67e; stroke:none;" d="M71 21L71 22L74 22L71 21z"/>
<path style="fill:#fec00f; stroke:none;" d="M98 139C94.2583 133.688 87.5748 124.966 81 123.318C68.479 120.179 52.5931 126.838 43.6528 113.996C38.4025 106.455 41 92.7885 41 84C41 73.1825 37.66 55.5878 43.3673 46.0401C51.2735 32.8139 76.9316 38 90 38C95.225 38 101.089 37.2446 106 39.3673C121.946 46.26 112.114 61.8249 116.603 74C119.606 82.144 132.033 92.0922 139 97C140.773 82.9819 141.664 70.4174 135.985 57C132.151 47.9407 125.71 39.7343 118 33.669C109.483 26.9686 98.8875 22.5377 88 22C65.6726 20.8974 45.7963 26.9883 31.9275 46C8.83211 77.6597 24.23 128.372 63 138.775C74.7909 141.939 86.0744 141.247 98 139z"/>
<path style="fill:#d2bd30; stroke:none;" d="M82 21L82 22L90 22L82 21z"/>
<path style="fill:#b1bb49; stroke:none;" d="M67.6667 22.3333L68.3333 22.6667L67.6667 22.3333z"/>
<path style="fill:#7cb771; stroke:none;" d="M93.6667 22.3333L94.3333 22.6667L93.6667 22.3333z"/>
<path style="fill:#a5ba51; stroke:none;" d="M63.6667 23.3333L64.3333 23.6667L63.6667 23.3333z"/>
<path style="fill:#5db688; stroke:none;" d="M97.6667 23.3333L98.3333 23.6667L97.6667 23.3333z"/>
<path style="fill:#5eb587; stroke:none;" d="M100.667 24.3333L101.333 24.6667L100.667 24.3333z"/>
<path style="fill:#e1bb23; stroke:none;" d="M52 38L52 39L105 39L88 38L52 38z"/>
<path style="fill:#1c97ad; stroke:none;" d="M45 42L45 43C60.5469 43 85.3783 43.0118 77 66C89.4298 66.0096 93.9987 71.9768 94 84C102.42 81.3317 108.618 82.5429 114 90C118.002 80.4618 115.017 64.3591 115 54C114.993 49.7354 115.125 45.5529 111.772 42.3943C107.052 37.9492 99.9413 39 94 39C79.1713 39 58.4328 35.248 45 42z"/>
<path style="fill:#994851; stroke:none;" d="M44 43L44 88L45 88C45 75.2581 48.91 54.7011 44 43z"/>
<path style="fill:#f80d0d; stroke:none;" d="M45 43L45 88L53 88C53 77.9852 52.6888 73.0087 64 73L64 67C51.7317 66.9905 53 60.4265 53 50C64.6672 50.0013 73.3142 53.6644 66 66C69.0133 66 73.8697 66.8729 76.436 64.9722C82.301 60.6283 77.672 49.1107 72.956 45.9946C65.3302 40.9558 53.69 43 45 43z"/>
<path style="fill:#1c97ad; stroke:none;" d="M43 45C39.25 60.7511 42 79.8281 42 96C42 101.736 40.5199 109.934 43.7423 114.985C47.6654 121.133 55.3254 121.822 62 121.985C77.3704 122.362 105.489 127.51 115 113C105.31 117.069 91.1283 122.494 88 107C92.548 107.35 94.1699 109.931 98.0394 111.822C101.83 113.674 110.491 110.905 106.953 105.513C102.124 98.1531 90.4192 102.982 88 91L72 93L72 105L63 105L63 74L54 74C54 82.9564 54.2592 87.9638 44 88C44 75.7811 47.7105 56.2256 43 45z"/>
<path style="fill:#8a525d; stroke:none;" d="M72 45L73 46L72 45z"/>
<path style="fill:#b8b33f; stroke:none;" d="M41 49L41 111L42 111L42 69L41 49z"/>
<path style="fill:#699f6f; stroke:none;" d="M115 49L115 110L116 110L116 69L115 49z"/>
<path style="fill:#8a515c; stroke:none;" d="M53 50L53 66L54 66L53 50z"/>
<path style="fill:#537485; stroke:none;" d="M54 50L54 51L64 51L54 50z"/>
<path style="fill:#1c97ad; stroke:none;" d="M54 51L54 66C57.5813 66 62.647 66.8698 65.8519 64.9722C69.5914 62.7581 70.5326 54.7484 66.6821 52.179C63.4165 49.9999 57.7394 51 54 51z"/>
<path style="fill:#8a515c; stroke:none;" d="M66 51L67 52L66 51z"/>
<path style="fill:#b4373d; stroke:none;" d="M78.3333 53.6667L78.6667 54.3333L78.3333 53.6667z"/>
<path style="fill:#537485; stroke:none;" d="M69 55L69 61L70 61L69 55z"/>
<path style="fill:#984852; stroke:none;" d="M78.3333 61.6667L78.6667 62.3333L78.3333 61.6667z"/>
<path style="fill:#96b95c; stroke:none;" d="M22.3333 66.6667L22.6667 67.3333L22.3333 66.6667z"/>
<path style="fill:#8a525d; stroke:none;" d="M54 66L54 67L64 67L54 66z"/>
<path style="fill:#ffffff; stroke:none;" d="M64 66L64 105L71 105C71 101.677 70.0186 96.1882 72.6034 93.6034C76.3161 89.8907 83.3405 93.346 87.7137 90.2577C101.342 80.6335 91.7064 66.0677 78 66.0008L64 66z"/>
<path style="fill:#71becc; stroke:none;" d="M85.6667 66.3333L86.3333 66.6667L85.6667 66.3333z"/>
<path style="fill:#b5ba45; stroke:none;" d="M139.333 68.6667L139.667 69.3333L139.333 68.6667z"/>
<path style="fill:#67b681; stroke:none;" d="M21 70L21 73L22 73L21 70z"/>
<path style="fill:#c7e5eb; stroke:none;" d="M71 86L72 86L72 72L80 72C69.6321 67.6602 71 79.2975 71 86z"/>
<path style="fill:#1c97ad; stroke:none;" d="M72 72L72 86C89.0548 85.9981 89.1428 72.0019 72 72z"/>
<path style="fill:#6db67c; stroke:none;" d="M140 72L140 75L141 75L140 72z"/>
<path style="fill:#c12e34; stroke:none;" d="M54 73L54 74L64 74L54 73z"/>
<path style="fill:#8a515c; stroke:none;" d="M53 74L53 87L54 87L53 74z"/>
<path style="fill:#40a7ba; stroke:none;" d="M63 74L63 105L64 105L63 74z"/>
<path style="fill:#e5ad0d; stroke:none;" d="M116 75C116 92.3833 121.783 118.426 99 122.535C93.7968 123.474 88.2681 123 83 123C86.3078 127.696 93.0544 136.918 99 138.068C103.103 138.861 108.621 135.081 112 133.124C122.171 127.234 138.661 112.286 138.164 99C137.878 91.3242 121.919 79.1696 116 75z"/>
<path style="fill:#004aad; stroke:none;" d="M88 107C89.3797 119.38 112.683 123.421 114.851 109.91C116.426 100.091 107.869 99.4194 101.005 96.74C98.5229 95.7709 94.9304 93.4236 96.8904 90.314C100.456 84.6579 110.04 92.9409 115 93C112.614 81.1814 93.2981 77.2352 88.7577 90.0038C84.4382 102.151 102.049 100.027 106.338 105.513C110.161 110.403 101.622 113.298 98.0394 111.262C94.2024 109.081 92.6191 107.153 88 107z"/>
<path style="fill:#c6e5ea; stroke:none;" d="M72 86L72 87L81 87L72 86z"/>
<path style="fill:#b0ba49; stroke:none;" d="M140 86L140 89L141 89L140 86z"/>
<path style="fill:#1c97ad; stroke:none;" d="M115 103L115 93C109.784 92.8298 107.656 89.0406 102.958 88.233C98.8044 87.5192 92.6331 91.0769 97.3333 95.2724C101.535 99.0228 109.909 99.9669 115 103z"/>
<path style="fill:#c7e5eb; stroke:none;" d="M72 92L72 93L84 93L72 92M71 93L71 105L72 105L71 93z"/>
<path style="fill:#8eb862; stroke:none;" d="M139.333 93.6667L139.667 94.3333L139.333 93.6667z"/>
<path style="fill:#6ab67f; stroke:none;" d="M22.3333 94.6667L22.6667 95.3333L22.3333 94.6667z"/>
<path style="fill:#4f9f7f; stroke:none;" d="M80 121L59 122L59 123L80 121z"/>
<path style="fill:#759a59; stroke:none;" d="M81 122L81 123L100 123L81 122z"/>
<path style="fill:#b5ba45; stroke:none;" d="M65.6667 139.333L66.3333 139.667L65.6667 139.333z"/>
<path style="fill:#67b681; stroke:none;" d="M95.6667 139.333L96.3333 139.667L95.6667 139.333z"/>
<path style="fill:#a1b954; stroke:none;" d="M89.6667 140.333L90.3333 140.667L89.6667 140.333z"/>
<path style="fill:#88b868; stroke:none;" d="M75 141L75 142L85 142L75 141z"/>
<path style="fill:#56bdc5; stroke:none;" d="M127 241L127 221C120.585 221 111.88 219.478 106.004 222.457C96.1943 227.429 95.2268 241.924 104.043 248.347C109.999 252.686 119.943 251.133 127 253C114.449 265.824 116 279.234 116 296L116 362L196 362C196 350.345 192.693 332.611 198 322C203.868 310.269 214.519 310 226 310L273 310L273 304L226 304L203 303.363L138 272C140.188 264 144.597 249.715 154 249C151.977 253.858 144.725 263.219 146.697 268.61C148.973 274.834 167.231 280.362 173 283.247C182.892 288.193 194.167 296.268 205 298.61C225.455 303.031 251.046 299 272 299L272 290L247 290L247 282L273 282L273 249L157 249C162.729 235.241 169.125 221.71 174.999 208C179.495 197.507 184.653 185.371 195 179.363C203.141 174.637 212.959 176 222 176L273 176L273 156L207 156C196.112 156 184.814 154.46 176.004 162.188C160.327 175.94 153.656 201.372 145.576 220C141.118 230.277 139.639 240.99 127 241z"/>
<path style="fill:#30686f; stroke:none;" d="M273 156L273 176L325 176C333.427 176 343.363 174.71 351 179.089C371.06 190.589 381.068 228.556 389 249L273 249L273 283L299 283L299 289L273 289L273 299C294.572 299 320.943 303.162 342 298.61C351.845 296.481 362.015 289.246 371 284.753C377.115 281.696 398.177 275.412 400.292 268.787C401.911 263.714 394.786 253.076 392 249C401.534 249.725 405.704 263.967 408 272L342 303.363L319 304L273 304L273 310L321 310C331.642 310 341.809 310.401 347.583 321C353.433 331.74 350 350.062 350 362L430 362L430 294C430 278.327 431.726 265.982 420 254C427.399 251.502 438.817 252.981 444.895 248.347C453.245 241.982 452.505 227.363 442.985 222.457C437.155 219.453 428.381 221 422 221L422 241C406.749 241 405.393 230.587 399.999 218C392.434 200.345 385.743 175.45 370.91 162.468C361.695 154.402 350.388 156 339 156L273 156z"/>
<path style="fill:#00ffff; stroke:none;" d="M369 161L370 162L369 161z"/>
<path style="fill:#80ffff; stroke:none;" d="M374 166L375 167L374 166z"/>
<path style="fill:#3a4f5a; stroke:none;" d="M201 176L201 177L273 177L250 176L201 176z"/>
<path style="fill:#1c171d; stroke:none;" d="M273 176L273 178L324 178C335.621 178 346.046 177.298 354.995 186.019C366.75 197.473 372.29 216.174 378.588 231C380.785 236.172 383.224 247.318 389 249C384.235 231.578 375.02 213.046 366.742 197C363.116 189.972 358.372 182.174 351 178.569C342.908 174.611 332.715 176 324 176L273 176z"/>
<path style="fill:#322b38; stroke:none;" d="M157 249C163.24 246.985 165.587 236.63 167.999 231C174.263 216.381 179.622 197.549 191.093 186.093C199.899 177.3 210.489 178 222 178L273 178C264.643 174.493 251.06 177 242 177C228.817 177 208.181 173.111 196 178.367C188.78 181.483 184.287 188.395 180.591 195C171.586 211.095 162.1 231.298 157 249z"/>
<path style="fill:#4d5258; stroke:none;" d="M204 178L204 179L273 179L251 178L204 178z"/>
<path style="fill:#34373a; stroke:none;" d="M273 178L273 179L342 179L320 178L273 178z"/>
<path style="fill:#687c7a; stroke:none;" d="M200.667 179.333L201.333 179.667L200.667 179.333z"/>
<path style="fill:#9bc7b8; stroke:none;" d="M160 249L183 245.171L236 241.572L272 233L272 245L273 245L273 179L221 179C212.975 179 203.308 177.551 196 181.558C188.557 185.638 184.369 193.67 180.756 201C173.193 216.344 165.512 232.807 160 249z"/>
<path style="fill:#576e67; stroke:none;" d="M273 179L273 197L287 186C281.805 197.14 273 199.47 273 213L295 195C282.645 207.355 273 213.969 273 232C299.292 221.802 327.535 206.391 339 179L273 179z"/>
<path style="fill:#687771; stroke:none;" d="M273 245L359 245.039L386 249C382.825 231.187 370.405 205.864 360.096 191C356.364 185.62 348.577 177.503 341.105 179.333C336.806 180.386 334.598 186.687 332.279 190C327.206 197.246 320.895 203.665 314 209.192C305.65 215.885 296.607 221.094 287 225.742C283.267 227.547 276.41 228.817 274.028 232.418C271.931 235.589 273 241.362 273 245z"/>
<path style="fill:#747e79; stroke:none;" d="M273 202C278.505 198.122 285.135 192.644 287 186C280.126 187.929 273.545 194.769 273 202z"/>
<path style="fill:#00ffff; stroke:none;" d="M386 187L387 188L386 187z"/>
<path style="fill:#747e79; stroke:none;" d="M273 217L295 195C287.242 194.884 274.153 209.528 273 217z"/>
<path style="fill:#00ffff; stroke:none;" d="M389 194L390 195L389 194z"/>
<path style="fill:#3b4c48; stroke:none;" d="M72 199L72 433C66.9399 433.122 63.8047 433.982 62 439L81 439L81 285C81 261.509 76.5616 232.843 82 210L72 199z"/>
<path style="fill:#cde2d9; stroke:none;" d="M271 200L252 221C257.631 218.374 272.357 206.768 271 200z"/>
<path style="fill:#262f2d; stroke:none;" d="M87 201C75.6018 221.555 81 251.766 81 275L81 439L98 438C95.7513 433.541 92.7513 433.056 88 433L88 270L88 223L87 201z"/>
<path style="fill:#00ffff; stroke:none;" d="M396 210L397 211L396 210z"/>
<path style="fill:#cde2d9; stroke:none;" d="M271 215L260 229C264.742 226.789 272.853 220.928 271 215z"/>
<path style="fill:#00ffff; stroke:none;" d="M403 226L404 227L403 226z"/>
<path style="fill:#b8d6ca; stroke:none;" d="M212 244L212 245L272 245L272 233L212 244z"/>
<path style="fill:#00ffff; stroke:none;" d="M406 233L407 234L406 233z"/>
<path style="fill:#6e8280; stroke:none;" d="M180 245L180 246L199 246L180 245z"/>
<path style="fill:#8fa7a1; stroke:none;" d="M199 245L199 246L273 246L250 245L199 245z"/>
<path style="fill:#545e5d; stroke:none;" d="M273 245L273 246L364 246L336 245L273 245z"/>
<path style="fill:#322b38; stroke:none;" d="M173 247L173 248L273 248L273 246L208 246L173 247z"/>
<path style="fill:#1c171d; stroke:none;" d="M273 246L273 248L374 248C365.65 243.561 352.251 246 343 246L273 246z"/>
<path style="fill:#3b4f5c; stroke:none;" d="M168 248L168 249L273 249L241 248L168 248z"/>
<path style="fill:#27353c; stroke:none;" d="M273 248L273 249L377 249L347 248L273 248z"/>
<path style="fill:#3f8a91; stroke:none;" d="M138 272L202 303.363L226 304L273 304L273 299C252.046 299 226.455 303.031 206 298.61C195.167 296.268 183.892 288.193 174 283.247C168.452 280.473 148.376 274.114 146.932 267.787C145.684 262.317 152.485 254.258 154 249C144.325 249.317 139.454 263.556 138 272z"/>
<path style="fill:#254f55; stroke:none;" d="M392 249C394.321 253.538 400.876 262.751 400.006 267.895C399.426 271.324 394.746 272.91 392 274.139C384.22 277.621 376.625 281.434 369 285.247C360.314 289.59 350.521 296.551 341 298.61C320.244 303.096 294.263 299 273 299L273 304L320 304L343 303.363L408 272C406.495 263.533 401.756 249.319 392 249z"/>
<path style="fill:#52bfc8; stroke:none;" d="M430 275L430 362L431 362L431 302L430 275z"/>
<path style="fill:#3d858c; stroke:none;" d="M247 282L247 283L273 283L247 282z"/>
<path style="fill:#254f55; stroke:none;" d="M247 283L247 289L273 289L273 283L247 283z"/>
<path style="fill:#183137; stroke:none;" d="M273 283L273 289L299 289L299 283L273 283z"/>
<path style="fill:#4aa2a9; stroke:none;" d="M247 289L247 290L272 290L272 299L273 299L273 289L247 289z"/>
<path style="fill:#8fa37e; stroke:none;" d="M128 304L128 305L132 305L128 304z"/>
<path style="fill:#d78122; stroke:none;" d="M126.044 305.742C116.016 309.807 122.939 325.199 132.981 321.257C143.133 317.272 136.477 301.514 126.044 305.742z"/>
<path style="fill:#7b4812; stroke:none;" d="M413.044 305.742C403.025 309.803 409.712 325.374 419.956 321.257C430.024 317.211 423.497 301.505 413.044 305.742z"/>
<path style="fill:#322b38; stroke:none;" d="M197 362L139 362C130.791 362 119.873 360.122 112.015 362.653C101.168 366.146 100.528 389.305 110.094 394.543C121.039 400.536 144.624 396 157 396L273 396L273 360L332 360C331.989 345.163 315.43 350 304 350C274.279 350 244.9 348 215 348L215 339C244.9 339 274.279 337 304 337C315.43 337 331.989 341.837 332 327L273 327L273 325L332 325L332 316L273 316L273 310L223 310C213.713 310 204.623 310.128 199.148 319.004C192.927 329.089 197 350.373 197 362z"/>
<path style="fill:#1c171d; stroke:none;" d="M273 310L273 316L332 316L332 325L273 325L273 327L332 327L329.682 335.972L314 337L273 337L273 339L332 339L332 348L273 348L273 350L314 350L329.682 351.028L332 360L273 360L273 396L389 396L421 396C425.581 396 431.773 397.041 435.957 394.821C445.499 389.758 445.131 365.499 433.999 362.434C425.969 360.223 415.309 362 407 362L350 362C350 349.678 353.784 329.794 347.005 319.004C341.455 310.168 332.304 310 323 310L273 310z"/>
<path style="fill:#a7975e; stroke:none;" d="M138 311L138 316L139 316L138 311z"/>
<path style="fill:#90a27c; stroke:none;" d="M148 313L148 314L153 314L148 313z"/>
<path style="fill:#7b4812; stroke:none;" d="M393 313.482C383.301 315.054 359.209 326.227 355.761 336.015C350.676 350.447 375.903 351.857 384 350.7C393.61 349.327 406.128 344.827 409.987 335C413.759 325.393 403.086 311.847 393 313.482z"/>
<path style="fill:#d78122; stroke:none;" d="M146.004 314.742C136.35 318.481 132.932 333.562 140.133 340.815C149.71 350.46 169.421 354.683 182 349.03C188.045 346.314 193.753 339.328 188.682 333.093C181.586 324.368 157.529 310.279 146.004 314.742z"/>
<path style="fill:#4c414d; stroke:none;" d="M215 316L215 324L272 324L272 316L215 316z"/>
<path style="fill:#914b0f; stroke:none;" d="M149.015 318.742C135.446 324.062 144.723 344.61 157.96 338.991C171.302 333.327 162.25 313.553 149.015 318.742z"/>
<path style="fill:#592c08; stroke:none;" d="M389.004 318.742C375.838 323.821 384.136 344.282 396.985 338.99C409.963 333.644 402.136 313.677 389.004 318.742z"/>
<path style="fill:#d78122; stroke:none;" d="M128.643 326.067C126.453 327.69 129.404 330.38 131.357 328.933C133.547 327.31 130.596 324.62 128.643 326.067z"/>
<path style="fill:#43727b; stroke:none;" d="M196 325L196 362L197 362C197 351.351 200.111 334.798 196 325z"/>
<path style="fill:#7b4812; stroke:none;" d="M419 330C417.782 322.691 411.691 328.782 419 330z"/>
<path style="fill:#4c414d; stroke:none;" d="M215 328L215 336L272 336L272 328L215 328z"/>
<path style="fill:#ffffff; stroke:none;" d="M175.303 330.176C171.997 331.824 174.16 337.255 177.701 336.11C181.442 334.899 178.897 328.385 175.303 330.176z"/>
<path style="fill:#918f8f; stroke:none;" d="M368.307 330.137C364.524 332.226 367.952 338.083 371.671 335.914C375.291 333.803 371.902 328.15 368.307 330.137z"/>
<path style="fill:#e9b983; stroke:none;" d="M180.333 332.667L180.667 333.333L180.333 332.667z"/>
<path style="fill:#914b0f; stroke:none;" d="M180 337L173 333C156.488 337.69 178.98 355.571 180 337z"/>
<path style="fill:#592c08; stroke:none;" d="M374 333L367 337C367.553 353.985 388.588 340.032 374 333z"/>
<path style="fill:#4c414d; stroke:none;" d="M215 339L215 348L273 348L273 339L215 339z"/>
<path style="fill:#2c2429; stroke:none;" d="M273 339L273 348L332 348L332 339L273 339z"/>
<path style="fill:#8ea37e; stroke:none;" d="M177.667 350.333L178.333 350.667L177.667 350.333z"/>
<path style="fill:#979f73; stroke:none;" d="M165 351L165 352L174 352L165 351z"/>
<path style="fill:#4c414d; stroke:none;" d="M215 351L215 359L272 359L272 351L215 351z"/>
<path style="fill:#6f6541; stroke:none;" d="M371 351L371 352L380 352L371 351z"/>
<path style="fill:#1b161c; stroke:none;" d="M134 396C134 406.253 131.443 420.546 135.92 430C142.589 444.085 164.627 445.176 172.856 431.999C178.844 422.409 176 406.851 176 396L134 396z"/>
<path style="fill:#000000; stroke:none;" d="M176 396C176 413.108 176.874 424.545 167 439L380 439L380 438C367.179 428.535 371 410.061 371 396L176 396z"/>
<path style="fill:#110d0f; stroke:none;" d="M371 396C371 406.396 368.231 421.511 373 430.999C379.401 443.734 401.157 444.91 409.03 432.985C415.703 422.878 413 407.515 413 396L371 396z"/>
<path style="fill:#d78122; stroke:none;" d="M98 439L131 439C128.706 433.518 124.811 423.272 119.621 420.028C108.181 412.878 99.5413 430.359 98 439z"/>
<path style="fill:#7b4812; stroke:none;" d="M414 439L448 439C445.721 433.555 441.872 423.181 436.671 420.028C424.77 412.812 417.393 430.893 414 439z"/>
<path style="fill:#65676d; stroke:none;" d="M93 439L93 466L273 466L273 439L170 439.004L154 441.802L142 439.093L93 439M81 466L81 439C72.2306 439 56.9619 436.07 49.1744 440.457C40.8349 445.154 41.0434 459.084 49.0432 463.91C57.1261 468.787 71.8615 466 81 466z"/>
<path style="fill:#38383a; stroke:none;" d="M81 439L81 466L93 466L93 439L81 439M273 439L273 466L432 466C445.855 466 481.009 472.74 479.952 451C479.051 432.455 444.52 439 432 439L273 439z"/>
<path style="fill:#3f3e44; stroke:none;" d="M150 441L150 442L158 442L150 441z"/>
</svg>
